<?xml version="1.0" encoding="UTF-8" standalone="no"?>
<!-- Created with Inkscape (http://www.inkscape.org/) -->

<svg
   width="192.45773mm"
   height="32.215256mm"
   viewBox="0 0 192.45773 32.215256"
   version="1.1"
   id="svg1"
   xml:space="preserve"
   sodipodi:docname="logo.svg"
   inkscape:version="1.4.2 (f4327f4, 2025-05-13)"
   xmlns:inkscape="http://www.inkscape.org/namespaces/inkscape"
   xmlns:sodipodi="http://sodipodi.sourceforge.net/DTD/sodipodi-0.dtd"
   xmlns:xlink="http://www.w3.org/1999/xlink"
   xmlns="http://www.w3.org/2000/svg"
   xmlns:svg="http://www.w3.org/2000/svg"><sodipodi:namedview
     id="namedview1"
     pagecolor="#ffffff"
     bordercolor="#000000"
     borderopacity="0.25"
     inkscape:showpageshadow="2"
     inkscape:pageopacity="0.0"
     inkscape:pagecheckerboard="0"
     inkscape:deskcolor="#d1d1d1"
     inkscape:document-units="mm"
     inkscape:zoom="0.4199894"
     inkscape:cx="0"
     inkscape:cy="-10.714556"
     inkscape:window-width="1366"
     inkscape:window-height="705"
     inkscape:window-x="-8"
     inkscape:window-y="-8"
     inkscape:window-maximized="1"
     inkscape:current-layer="layer1-8" /><defs
     id="defs1"><linearGradient
       id="linearGradient11"><stop
         style="stop-color:#fe6c01;stop-opacity:1;"
         offset="0"
         id="stop11" /><stop
         style="stop-color:#ff9f0d;stop-opacity:1;"
         offset="1"
         id="stop12" /></linearGradient><linearGradient
       xlink:href="#linearGradient11"
       id="linearGradient12"
       x1="88.06707"
       y1="113.89687"
       x2="157.73775"
       y2="113.89687"
       gradientUnits="userSpaceOnUse"
       gradientTransform="matrix(2.7623926,0,0,2.7623926,-207.46942,-225.77307)" /></defs><g
     id="layer1"
     transform="translate(-53.256,-87.87792)"><g
       id="layer1-8"
       transform="translate(16.558673,24.039981)"><path
         style="font-size:43.89px;font-family:Newake;-inkscape-font-specification:Newake;text-align:center;text-anchor:middle;fill:#f75001;fill-opacity:1;stroke-width:15.3442;stroke-linecap:round;stroke-linejoin:round;paint-order:markers stroke fill"
         d="m 64.935049,89.333144 -5.22291,-3.81843 c -0.13167,-0.08778 -0.39501,-0.08778 -0.48279,0.08778 -1.66782,2.01894 -4.08177,3.20397 -6.67128,3.20397 -4.74012,0 -8.60244,-3.9501 -8.60244,-8.82189 0,-4.8279 3.86232,-8.778 8.60244,-8.778 2.50173,0 4.8279,1.05336 6.49572,2.98452 0.13167,0.13167 0.35112,0.17556 0.48279,0.04389 l 5.22291,-3.81843 c 0.17556,-0.13167 0.21945,-0.35112 0.08778,-0.52668 -1.36059,-1.71171 -3.11619,-3.16008 -5.04735,-4.21344 -2.23839,-1.18503 -4.69623,-1.79949 -7.24185,-1.79949 -8.69022,0 -15.71262,7.24185 -15.71262,16.10763 0,8.90967 7.0224,16.107635 15.71262,16.107635 4.87179,0 9.48024,-2.28228 12.46476,-6.232385 0.13167,-0.13167 0.08778,-0.39501 -0.08778,-0.52668 z m 9.085254,-24.79785 h -6.846839 c -0.21945,0 -0.35112,0.17556 -0.35112,0.35112 v 29.801315 c 0,0.17556 0.13167,0.35112 0.35112,0.35112 h 6.846839 c 0.21945,0 0.39501,-0.17556 0.39501,-0.35112 V 64.886414 c 0,-0.17556 -0.17556,-0.35112 -0.39501,-0.35112 z m 9.91911,7.28574 h -6.49572 c -0.21945,0 -0.35112,0.17556 -0.35112,0.39501 v 22.471685 c 0,0.17556 0.13167,0.35112 0.35112,0.35112 h 6.49572 c 0.17556,0 0.35112,-0.17556 0.35112,-0.35112 V 72.216044 c 0,-0.21945 -0.17556,-0.39501 -0.35112,-0.39501 z m 0,-7.28574 h -6.49572 c -0.21945,0 -0.35112,0.17556 -0.35112,0.35112 v 4.74012 c 0,0.21945 0.13167,0.39501 0.35112,0.39501 h 6.49572 c 0.17556,0 0.35112,-0.17556 0.35112,-0.39501 v -4.74012 c 0,-0.17556 -0.17556,-0.35112 -0.35112,-0.35112 z m 34.804767,9.34857 v 0 c -0.17556,-0.17556 -0.35112,-0.30723 -0.52668,-0.4389 -0.0439,-0.04389 -3.86232,-3.02841 -8.20743,-1.53615 -0.74613,0.17556 -1.53615,0.57057 -2.23839,1.05336 -0.52668,0.39501 -1.00947,0.83391 -1.40448,1.3167 -0.17556,0.17556 -0.4389,0.21945 -0.57057,0.04389 -0.13167,-0.17556 -0.26334,-0.30723 -0.39501,-0.4389 -0.17556,-0.17556 -0.35112,-0.30723 -0.52668,-0.4389 -0.0439,-0.04389 -5.135139,-4.03788 -10.358049,-0.4389 -0.13167,0.08778 -0.30723,0 -0.30723,-0.17556 v -0.61446 c 0,-0.21945 -0.17556,-0.39501 -0.35112,-0.39501 h -6.49572 c -0.21945,0 -0.35112,0.17556 -0.35112,0.39501 v 22.471685 c 0,0.17556 0.13167,0.35112 0.35112,0.35112 h 6.93462 c 0.17556,0 0.35112,-0.17556 0.35112,-0.35112 V 81.959624 c 0,-0.8778 0,-1.97505 0.39501,-2.76507 0.30723,-0.74613 1.36059,-1.18503 2.67729,-1.18503 0.70224,0 1.27281,0.17556 1.71171,0.48279 0.26334,0.21945 0.482794,0.48279 0.658349,0.83391 0.35112,0.79002 0.39501,1.79949 0.39501,2.6334 l 0.0439,12.728105 c 0,0.17556 0.13167,0.35112 0.35112,0.35112 h 6.71517 c 0.21945,0 0.39501,-0.17556 0.39501,-0.35112 V 81.959624 c 0,-0.8778 0,-1.97505 0.35112,-2.76507 0.35112,-0.74613 1.40448,-1.18503 2.72118,-1.18503 0.70224,0 1.27281,0.17556 1.71171,0.48279 0.26334,0.21945 0.48279,0.48279 0.65835,0.83391 0.35112,0.79002 0.39501,1.79949 0.39501,2.6334 v 12.728105 c 0,0.17556 0.17556,0.35112 0.39501,0.35112 h 6.89073 c 0.21945,0 0.39501,-0.17556 0.39501,-0.35112 V 81.608504 c 0,-3.42342 -0.39501,-5.35458 -2.76507,-7.72464 z m 30.15247,-2.06283 h -6.49572 c -0.17556,0 -0.35112,0.17556 -0.35112,0.39501 v 0.70224 c 0,0.13167 -0.17556,0.21945 -0.30723,0.13167 -1.84338,-1.05336 -3.9501,-1.58004 -6.10071,-1.58004 -6.80295,0 -12.2892,5.44236 -12.2892,12.15753 0,6.67128 5.48625,12.113645 12.2892,12.113645 2.15061,0 4.25733,-0.52668 6.10071,-1.58004 0.13167,-0.0878 0.30723,0 0.30723,0.17556 v 0.30723 c 0,0.21945 0.17556,0.39501 0.35112,0.39501 h 6.49572 c 0.21945,0 0.35112,-0.17556 0.35112,-0.39501 V 72.216044 c 0,-0.21945 -0.13167,-0.39501 -0.35112,-0.39501 z m -12.15753,17.38044 c -3.0723,0 -5.61792,-2.50173 -5.61792,-5.57403 0,-3.0723 2.54562,-5.57403 5.61792,-5.57403 3.11619,0 5.31069,2.50173 5.31069,5.57403 0,3.0723 -2.1945,5.57403 -5.31069,5.57403 z m 39.93993,-24.53451 h -7.0224 c -0.21945,0 -0.39501,0.17556 -0.39501,0.39501 v 10.84083 c 0,0.21945 -0.17556,0.39501 -0.39501,0.39501 h -8.73411 c -0.21945,0 -0.39501,-0.17556 -0.39501,-0.39501 v -10.84083 c 0,-0.21945 -0.17556,-0.39501 -0.35112,-0.39501 h -7.06629 c -0.21945,0 -0.35112,0.17556 -0.35112,0.39501 v 29.889095 c 0,0.17556 0.13167,0.35112 0.35112,0.35112 h 7.06629 c 0.17556,0 0.35112,-0.17556 0.35112,-0.35112 V 83.671334 c 0,-0.21945 0.17556,-0.35112 0.39501,-0.35112 h 8.73411 c 0.21945,0 0.39501,0.13167 0.39501,0.35112 v 11.279735 c 0,0.17556 0.17556,0.35112 0.39501,0.35112 h 7.0224 c 0.21945,0 0.39501,-0.17556 0.39501,-0.35112 V 65.061974 c 0,-0.21945 -0.17556,-0.39501 -0.39501,-0.39501 z m 23.65677,7.15407 h -6.89073 c -0.21945,0 -0.39501,0.17556 -0.39501,0.39501 v 12.68421 c 0,0.8778 0,1.97505 -0.35112,2.76507 -0.35112,0.74613 -1.36059,1.22892 -2.72118,1.22892 -0.70224,0 -1.27281,-0.17556 -1.71171,-0.52668 -0.26334,-0.21945 -0.48279,-0.48279 -0.65835,-0.83391 -0.35112,-0.79002 -0.39501,-1.7556 -0.39501,-2.6334 v -12.68421 c 0,-0.21945 -0.17556,-0.39501 -0.35112,-0.39501 h -6.93462 c -0.21945,0 -0.35112,0.17556 -0.35112,0.39501 v 13.03533 c 0,3.42342 0.39501,5.35458 2.72118,7.724645 h 0.0439 c 0.13167,0.17556 0.30723,0.35112 0.48279,0.48279 0.0439,0.0439 2.50173,1.93116 5.7057,1.93116 1.44837,0 3.0723,-0.39501 4.69623,-1.49226 0.0878,-0.0878 0.26334,0 0.26334,0.13167 v 0.65835 c 0,0.17556 0.17556,0.35112 0.39501,0.35112 h 6.45183 c 0.21945,0 0.39501,-0.17556 0.39501,-0.35112 V 72.216044 c 0,-0.21945 -0.17556,-0.39501 -0.39501,-0.39501 z m 16.67817,-0.35112 c -2.15061,0 -4.25733,0.52668 -6.1446,1.58004 -0.0878,0.08778 -0.26334,0 -0.26334,-0.13167 v -8.03187 c 0,-0.21945 -0.17556,-0.35112 -0.35112,-0.35112 h -6.49572 c -0.21945,0 -0.35112,0.13167 -0.35112,0.35112 v 29.757425 c 0,0.21945 0.13167,0.39501 0.35112,0.39501 h 6.49572 c 0.17556,0 0.35112,-0.17556 0.35112,-0.39501 v -0.30723 c 0,-0.17556 0.17556,-0.26334 0.26334,-0.17556 1.88727,1.05336 3.99399,1.58004 6.1446,1.58004 6.75906,0 12.2892,-5.442365 12.2892,-12.113645 0,-6.71517 -5.53014,-12.15753 -12.2892,-12.15753 z m -1.14114,17.73156 c -3.11619,0 -5.2668,-2.50173 -5.2668,-5.57403 0,-3.0723 2.15061,-5.57403 5.2668,-5.57403 3.11619,0 5.66181,2.50173 5.66181,5.57403 0,3.0723 -2.54562,5.57403 -5.66181,5.57403 z"
         id="text10"
         aria-label="ClimaHub" /></g></g></svg>
